<svg width="80" height="36" viewBox="0 0 80 36" fill="none" xmlns="http://www.w3.org/2000/svg">
<path d="M73.9142 6.3429H68.9999C67.5142 6.3429 66.3713 6.80004 65.6856 8.28575L56.3142 29.6572H62.9428C62.9428 29.6572 64.0856 26.8 64.3142 26.1143C64.9999 26.1143 71.5142 26.1143 72.4285 26.1143C72.6571 26.9143 73.2285 29.5429 73.2285 29.5429H79.1714L73.9142 6.3429ZM66.1428 21.3143C66.7142 19.9429 68.6571 14.8 68.6571 14.8C68.6571 14.9143 69.2285 13.4286 69.4571 12.6286L69.9142 14.6858C69.9142 14.6858 71.1713 20.2858 71.3999 21.4286H66.1428V21.3143Z" fill="white"/>
<path d="M56.7714 22C56.7714 26.8 52.4285 30 45.6857 30C42.8285 30 40.0857 29.4286 38.6 28.7429L39.5143 23.4857L40.3143 23.8286C42.3714 24.7429 43.7428 25.0857 46.2571 25.0857C48.0857 25.0857 50.0285 24.4 50.0285 22.8C50.0285 21.7714 49.2285 21.0857 46.7143 19.9429C44.3143 18.8 41.1143 16.9714 41.1143 13.6571C41.1143 9.08571 45.5714 6 51.8571 6C54.2571 6 56.3143 6.45714 57.5714 7.02857L56.6571 12.0571L56.2 11.6C55.0571 11.1429 53.5714 10.6857 51.4 10.6857C49 10.8 47.8571 11.8286 47.8571 12.7429C47.8571 13.7714 49.2285 14.5714 51.4 15.6C55.0571 17.3143 56.7714 19.2571 56.7714 22Z" fill="white"/>
<path d="M1 6.5714L1.11429 6.11426H10.9429C12.3143 6.11426 13.3429 6.5714 13.6857 8.05711L15.8571 18.3428C13.6857 12.8571 8.65714 8.39997 1 6.5714Z" fill="white"/>
<path d="M29.6858 6.34292L19.7429 29.5429H13.0001L7.28577 10.1144C11.4001 12.7429 14.8286 16.8572 16.0858 19.7144L16.7715 22.1144L22.9429 6.22864H29.6858V6.34292Z" fill="white"/>
<path d="M32.3143 6.22864H38.6L34.6 29.5429H28.3143L32.3143 6.22864Z" fill="white"/>
</svg>
